<?xml version="1.0" encoding="UTF-8"?>
<svg id="Calque_2" data-name="Calque 2" xmlns="http://www.w3.org/2000/svg" viewBox="0 0 1005.54 629.97">
  <defs>
    <style>
      .cls-1 {
        fill: #0ea5e9;
      }
    </style>
  </defs>
  <g id="Calque_1-2" data-name="Calque 1">
    <g>
      <path class="cls-1" d="M340.27,601.56c-6.77,5.75-16.76,4.2-21.5-3.1l-106.03-163.27-70.72,108.5-28.6,46.4c-3.4,3.63-10.47,7.87-14.28,7.07s-10.95-7.85-11.84-13.58L.39,19.81C-.61,13.28.33,5.38,3.1,2.74s11.93-3.94,16-1.25l433.87,287.51c4.72,3.13,8.42,11.65,8.09,16.05-.41,5.48-6.65,12.45-12.4,14.26-51.77,16.32-101.36,32.27-153.09,52.3l103.35,159c5.13,7.89,2.49,16.8-2.9,23.54l-55.76,47.4Z"/>
      <path class="cls-1" d="M1004.5,564.43c8.44,21.83-75.48,18.04-88.21,19.98,7.17-33.12.7-59.21-14.51-85.53-21.65-28.4-57.57-42.41-89.43-29.32-42.03,17.29-63.05,63.67-53.09,114.55l-354.25.1c9.55-12.65,19.3-21.66,21.52-32.58,3.29-16.13-2.47-29.02-10.46-41.41l-80.55-124.94c9.72-7.07,14.9-3.37,22.62-1.99,32.51,5.8,63.87,8.21,97.44,9.79l304.27,14.29c-53.38-52.32-113.82-81.01-176.16-100.05-32.61-4.14-60.76-6.42-94.31-6.55l-8.43-23.64c62.54.15,125.68,7.5,180.15,35.21,36.47,18.55,70.64,39.04,104.98,62.1,13.78,9.26,27.28,14.69,43.26,17.56,45.66,8.2,88.91,19.04,132.74,36.86l-3.89,13.6-38.57-6.13c10.02,35.08,50.22,43.87,78.64,41.09-1.52-9.64-26.82-27.51-14.5-29.86,15.18-2.89,36.38,32.84,39.79,48.91,7.73,36.4-10.11,39.3.97,67.95Z"/>
      <ellipse class="cls-1" cx="837.81" cy="557.92" rx="63.25" ry="71.87"/>
      <path class="cls-1" d="M218.09,575.09c-8.57-3.24-56.11-15.79-46.63-30.45l39.26-60.73c7.72,7.64,13.49,16,19.16,25.99-11,21-12.46,37.77-11.8,65.2Z"/>
      <path class="cls-1" d="M307.78,626.95c-23.74,10.02-45.49-6.72-57.09-23.39-14.87-21.36-18.16-49.59-6.65-73.11l63.74,96.5Z"/>
    </g>
  </g>
</svg>